<?xml version="1.0" encoding="UTF-8"?>
<svg width="512" height="512" viewBox="0 0 512 512" fill="none" xmlns="http://www.w3.org/2000/svg">
  <rect width="512" height="512" rx="256" fill="#3B82F6"/>
  <path d="M368 232H280V144C280 135.2 272.8 128 264 128H248C239.2 128 232 135.2 232 144V232H144C135.2 232 128 239.2 128 248V264C128 272.8 135.2 280 144 280H232V368C232 376.8 239.2 384 248 384H264C272.8 384 280 376.8 280 368V280H368C376.8 280 384 272.8 384 264V248C384 239.2 376.8 232 368 232Z" fill="white"/>
</svg>